<svg width="32" height="32" viewBox="0 0 32 32" fill="none" xmlns="http://www.w3.org/2000/svg">
  <rect width="32" height="32" rx="8" fill="url(#gradient)"/>
  <path d="M8 12C8 10.8954 8.89543 10 10 10H14C15.1046 10 16 10.8954 16 12V16C16 17.1046 15.1046 18 14 18H10C8.89543 18 8 17.1046 8 16V12Z" fill="white"/>
  <path d="M18 12C18 10.8954 18.8954 10 20 10H22C23.1046 10 24 10.8954 24 12V16C24 17.1046 23.1046 18 22 18H20C18.8954 18 18 17.1046 18 16V12Z" fill="white"/>
  <path d="M13 20C13 19.4477 13.4477 19 14 19H18C18.5523 19 19 19.4477 19 20V22C19 22.5523 18.5523 23 18 23H14C13.4477 23 13 22.5523 13 22V20Z" fill="white"/>
  <defs>
    <linearGradient id="gradient" x1="0" y1="0" x2="32" y2="32" gradientUnits="userSpaceOnUse">
      <stop stop-color="#3B82F6"/>
      <stop offset="1" stop-color="#8B5CF6"/>
    </linearGradient>
  </defs>
</svg>
